HIERARCHY
ROOT Hips
{
  OFFSET 5.84602e-005 68.8428 3.50346
  CHANNELS 6 Xposition Yposition Zposition Zrotation Xrotation Yrotation
  JOINT Spine
  {
    OFFSET 0 8.597 -4.6522
    CHANNELS 3 Zrotation Xrotation Yrotation
    JOINT Spine1
    {
      OFFSET 0 7.8454 0.4098
      CHANNELS 3 Zrotation Xrotation Yrotation
      JOINT Spine2
      {
        OFFSET 0 9.7078 -2.1609
        CHANNELS 3 Zrotation Xrotation Yrotation
        JOINT Neck
        {
          OFFSET 0 21.8761 -0.4549
          CHANNELS 3 Zrotation Xrotation Yrotation
          JOINT Head
          {
            OFFSET 0 12.3537 3.3602
            CHANNELS 3 Zrotation Xrotation Yrotation
            End Site
            {
              OFFSET 0.0001 18.9506 0.5657
            }
          }
        }
        JOINT LeftShoulder
        {
          OFFSET 2.2086 21.1115 7.2329
          CHANNELS 3 Zrotation Xrotation Yrotation
          JOINT LeftArm
          {
            OFFSET 13.1193 3.0282 -4.8998
            CHANNELS 3 Zrotation Xrotation Yrotation
            JOINT LeftForeArm
            {
              OFFSET 27.4081 -0.0973053 -0.2375
              CHANNELS 3 Zrotation Xrotation Yrotation
              JOINT LeftHand
              {
                OFFSET 22.8641 0.0662994 -0.1369
                CHANNELS 3 Zrotation Xrotation Yrotation
                JOINT LeftHandIndex1
                {
                  OFFSET 8.8614 0.775009 2.4612
                  CHANNELS 3 Zrotation Xrotation Yrotation
                  JOINT LeftHandIndex2
                  {
                    OFFSET 3.3146 -0.808304 0.5841
                    CHANNELS 3 Zrotation Xrotation Yrotation
                    JOINT LeftHandIndex3
                    {
                      OFFSET 2.2628 -0.552002 0.3989
                      CHANNELS 3 Zrotation Xrotation Yrotation
                      End Site
                      {
                        OFFSET 1.6102 -0.4807 0.2612
                      }
                    }
                  }
                }
                JOINT LeftHandMiddle1
                {
                  OFFSET 8.9937 0.895004 0.2143
                  CHANNELS 3 Zrotation Xrotation Yrotation
                  JOINT LeftHandMiddle2
                  {
                    OFFSET 4.0984 0.0113983 -0.0242
                    CHANNELS 3 Zrotation Xrotation Yrotation
                    JOINT LeftHandMiddle3
                    {
                      OFFSET 2.2716 0.00689697 -0.0138001
                      CHANNELS 3 Zrotation Xrotation Yrotation
                      End Site
                      {
                        OFFSET 2.0404 -0.1441 0.0027
                      }
                    }
                  }
                }
                JOINT LeftHandRing1
                {
                  OFFSET 8.5234 0.597198 -2.0164
                  CHANNELS 3 Zrotation Xrotation Yrotation
                  JOINT LeftHandRing2
                  {
                    OFFSET 3.7188 -0.188293 -0.2328
                    CHANNELS 3 Zrotation Xrotation Yrotation
                    JOINT LeftHandRing3
                    {
                      OFFSET 2.1191 -0.106598 -0.1332
                      CHANNELS 3 Zrotation Xrotation Yrotation
                      End Site
                      {
                        OFFSET 1.8737 -0.2304 -0.0886
                      }
                    }
                  }
                }
                JOINT LeftHandPinky1
                {
                  OFFSET 7.9094 -0.601089 -3.4825
                  CHANNELS 3 Zrotation Xrotation Yrotation
                  JOINT LeftHandPinky2
                  {
                    OFFSET 2.2874 -0.477005 -0.6314
                    CHANNELS 3 Zrotation Xrotation Yrotation
                    JOINT LeftHandPinky3
                    {
                      OFFSET 1.6774 -0.349396 -0.4633
                      CHANNELS 3 Zrotation Xrotation Yrotation
                      End Site
                      {
                        OFFSET 1.4888 -0.4091 -0.3416
                      }
                    }
                  }
                }
                JOINT LeftHandThumb1
                {
                  OFFSET 1.833 -1.3875 1.3896
                  CHANNELS 3 Zrotation Xrotation Yrotation
                  JOINT LeftHandThumb2
                  {
                    OFFSET 3.4129 -1.121 2.5732
                    CHANNELS 3 Zrotation Xrotation Yrotation
                    JOINT LeftHandThumb3
                    {
                      OFFSET 2.2474 -0.804199 1.6192
                      CHANNELS 3 Zrotation Xrotation Yrotation
                      End Site
                      {
                        OFFSET 1.6527 -0.5689 1.1317
                      }
                    }
                  }
                }
              }
            }
          }
        }
        JOINT RightShoulder
        {
          OFFSET -2.2086 21.1115 7.2329
          CHANNELS 3 Zrotation Xrotation Yrotation
          JOINT RightArm
          {
            OFFSET -13.1216 3.0287 -4.9007
            CHANNELS 3 Zrotation Xrotation Yrotation
            JOINT RightForeArm
            {
              OFFSET -27.4081 -0.0973053 -0.2375
              CHANNELS 3 Zrotation Xrotation Yrotation
              JOINT RightHand
              {
                OFFSET -22.8641 0.0664063 -0.1369
                CHANNELS 3 Zrotation Xrotation Yrotation
                JOINT RightHandIndex1
                {
                  OFFSET -8.8614 0.774994 2.4612
                  CHANNELS 3 Zrotation Xrotation Yrotation
                  JOINT RightHandIndex2
                  {
                    OFFSET -3.3146 -0.808304 0.5841
                    CHANNELS 3 Zrotation Xrotation Yrotation
                    JOINT RightHandIndex3
                    {
                      OFFSET -2.2628 -0.552002 0.3989
                      CHANNELS 3 Zrotation Xrotation Yrotation
                      End Site
                      {
                        OFFSET -1.6102 -0.4807 0.2612
                      }
                    }
                  }
                }
                JOINT RightHandMiddle1
                {
                  OFFSET -8.9937 0.894989 0.2143
                  CHANNELS 3 Zrotation Xrotation Yrotation
                  JOINT RightHandMiddle2
                  {
                    OFFSET -4.0984 0.0113983 -0.0242
                    CHANNELS 3 Zrotation Xrotation Yrotation
                    JOINT RightHandMiddle3
                    {
                      OFFSET -2.2716 0.00691223 -0.0138001
                      CHANNELS 3 Zrotation Xrotation Yrotation
                      End Site
                      {
                        OFFSET -2.0404 -0.1441 0.0027
                      }
                    }
                  }
                }
                JOINT RightHandRing1
                {
                  OFFSET -8.5234 0.597198 -2.0164
                  CHANNELS 3 Zrotation Xrotation Yrotation
                  JOINT RightHandRing2
                  {
                    OFFSET -3.7188 -0.188309 -0.2328
                    CHANNELS 3 Zrotation Xrotation Yrotation
                    JOINT RightHandRing3
                    {
                      OFFSET -2.1191 -0.106598 -0.1332
                      CHANNELS 3 Zrotation Xrotation Yrotation
                      End Site
                      {
                        OFFSET -1.8737 -0.2304 -0.0886
                      }
                    }
                  }
                }
                JOINT RightHandPinky1
                {
                  OFFSET -7.9094 -0.601105 -3.4825
                  CHANNELS 3 Zrotation Xrotation Yrotation
                  JOINT RightHandPinky2
                  {
                    OFFSET -2.2874 -0.477005 -0.6314
                    CHANNELS 3 Zrotation Xrotation Yrotation
                    JOINT RightHandPinky3
                    {
                      OFFSET -1.6774 -0.349396 -0.4633
                      CHANNELS 3 Zrotation Xrotation Yrotation
                      End Site
                      {
                        OFFSET -1.4888 -0.4091 -0.3416
                      }
                    }
                  }
                }
                JOINT RightHandThumb1
                {
                  OFFSET -1.833 -1.38751 1.3896
                  CHANNELS 3 Zrotation Xrotation Yrotation
                  JOINT RightHandThumb2
                  {
                    OFFSET -3.41299 -1.12099 2.5732
                    CHANNELS 3 Zrotation Xrotation Yrotation
                    JOINT RightHandThumb3
                    {
                      OFFSET -2.24741 -0.804108 1.6192
                      CHANNELS 3 Zrotation Xrotation Yrotation
                      End Site
                      {
                        OFFSET -1.6527 -0.5689 1.1317
                      }
                    }
                  }
                }
              }
            }
          }
        }
      }
    }
  }
  JOINT RightUpLeg
  {
    OFFSET -9.1966 3.8861 -0.7581
    CHANNELS 3 Zrotation Xrotation Yrotation
    JOINT RightLeg
    {
      OFFSET -0.7359 -41.0265 0
      CHANNELS 3 Zrotation Xrotation Yrotation
      JOINT RightFoot
      {
        OFFSET 0 -40.2855 0
        CHANNELS 3 Zrotation Xrotation Yrotation
        JOINT RightToeBase
        {
          OFFSET 0 -5.6122 11.7359
          CHANNELS 3 Zrotation Xrotation Yrotation
          End Site
          {
            OFFSET 0 0 7.8731
          }
        }
      }
    }
  }
  JOINT LeftUpLeg
  {
    OFFSET 9.1965 3.8864 -0.7581
    CHANNELS 3 Zrotation Xrotation Yrotation
    JOINT LeftLeg
    {
      OFFSET 0.7359 -41.0268 0
      CHANNELS 3 Zrotation Xrotation Yrotation
      JOINT LeftFoot
      {
        OFFSET 0 -40.2855 0
        CHANNELS 3 Zrotation Xrotation Yrotation
        JOINT LeftToeBase
        {
          OFFSET 0 -5.6122 11.7359
          CHANNELS 3 Zrotation Xrotation Yrotation
          End Site
          {
            OFFSET 0 0 7.8731
          }
        }
      }
    }
  }
}
MOTION
Frames:	4
Frame Time:	0.0333333
39.7367 37.071 22.5103 179.994 51.0054 0.0125393 -0.172885 -1.98781 0.134701 -0.341399 -3.97602 0.263633 -0.3414 -3.97601 0.263633 1.22776e-006 15.9933 -3.30018e-007 1.01684e-007 21.9179 7.40237e-008 6.16073 1.44714 17.8843 -16.3289 57.9588 27.8553 32.0965 48.6369 -73.317 0.559472 -1.45497 8.28398 -4.86245e-007 3.20364e-007 -3.16304e-006 1.08163e-006 -7.55898e-007 4.23643e-006 1.68244e-007 7.46989e-007 -1.29041e-006 -4.86245e-007 3.20364e-007 -3.16304e-006 -0.0145982 -8.93533e-005 5.14202e-006 -3.78784e-007 2.05854e-007 -5.25266e-006 -4.86245e-007 3.20364e-007 -3.16304e-006 -0.0187606 -0.00117604 6.31018e-005 -3.79312e-007 2.0592e-007 -5.25264e-006 -4.86245e-007 3.20364e-007 -3.16304e-006 -0.0122758 -0.00324916 0.000680606 -1.0439e-007 4.76477e-007 -3.2715e-006 -4.86245e-007 3.20364e-007 -3.16304e-006 1.08163e-006 -7.55898e-007 4.23643e-006 1.68244e-007 7.46989e-007 -1.29041e-006 -6.18127 1.45136 -17.9018 20.0248 56.9874 -32.3561 -32.116 48.6231 73.3074 -0.573328 -1.45399 -8.27713 1.21811e-006 3.05289e-006 -2.11895e-007 3.15868e-007 2.841e-006 -3.26479e-006 -7.08563e-007 4.12539e-006 -1.59398e-006 1.21811e-006 3.05289e-006 -2.11895e-007 0.0149629 -8.70797e-005 -3.8951e-006 -3.08205e-007 3.66198e-006 2.38747e-007 1.21811e-006 3.05289e-006 -2.11895e-007 0.0189704 -0.00119006 -6.44301e-005 -3.08169e-007 3.66197e-006 2.38622e-007 1.21811e-006 3.05289e-006 -2.11895e-007 0.0122951 -0.00325603 -0.000676679 -3.08243e-007 3.66194e-006 2.38835e-007 1.21811e-006 3.05289e-006 -2.11895e-007 3.15868e-007 2.841e-006 -3.26479e-006 -7.08563e-007 4.12539e-006 -1.59398e-006 -46.0013 32.0699 -29.5223 -70.4093 38.7999 70.6384 12.4061 14.0429 17.255 -1.64229e-006 -3.54591e-007 1.30249e-007 44.785 32.3012 28.8803 70.9742 39.0966 -71.0341 -14.1452 13.6165 -15.9281 -1.59028e-015 0 -0 
39.7368 37.0709 22.5104 179.994 51.0054 0.0125393 -0.172729 -1.95771 0.134978 -0.341138 -3.91578 0.264279 -0.341138 -3.91579 0.264278 -2.08374e-005 15.9929 1.16165e-005 3.0932e-007 21.341 -6.43534e-008 6.16072 1.4471 17.8844 -16.3097 57.9633 27.8322 32.0965 48.6369 -73.317 0.559475 -1.45497 8.28397 3.81974e-007 1.55679e-007 -1.07989e-007 1.32744e-006 1.19884e-006 -1.6198e-006 1.34638e-006 -1.09089e-007 8.63872e-007 3.81974e-007 1.55679e-007 -1.07989e-007 -0.0146084 -8.67979e-005 -3.29178e-006 1.14591e-006 4.67079e-007 -3.23908e-007 3.81974e-007 1.55679e-007 -1.07989e-007 -0.0187688 -0.00117532 5.76971e-005 1.34383e-006 -1.09392e-007 8.63849e-007 3.81974e-007 1.55679e-007 -1.07989e-007 -0.0122407 -0.00323823 0.00066736 1.14591e-006 4.67064e-007 -3.23949e-007 3.81974e-007 1.55679e-007 -1.07989e-007 1.32744e-006 1.19884e-006 -1.6198e-006 1.34638e-006 -1.09089e-007 8.63872e-007 -6.18127 1.45131 -17.9018 20.0248 56.9874 -32.3561 -32.116 48.6231 73.3074 -0.573331 -1.45399 -8.27713 9.54166e-015 1.27222e-014 9.54166e-015 4.88175e-007 6.61386e-007 1.22577e-006 -4.88175e-007 -6.61386e-007 -1.22577e-006 9.54166e-015 1.27222e-014 9.54166e-015 0.0149747 -9.11285e-005 -2.88146e-006 -4.86137e-007 -6.61559e-007 -1.22569e-006 9.54166e-015 1.27222e-014 9.54166e-015 0.0190073 -0.00119179 -6.5474e-005 -6.36111e-015 6.36111e-015 -3.18055e-015 9.54166e-015 1.27222e-014 9.54166e-015 0.0122829 -0.0032495 -0.000677923 6.36111e-015 3.18055e-015 -3.18055e-015 9.54166e-015 1.27222e-014 9.54166e-015 4.88175e-007 6.61386e-007 1.22577e-006 -4.88175e-007 -6.61386e-007 -1.22577e-006 -45.6865 32.1676 -29.3549 -70.4102 38.8001 70.644 12.7907 13.9975 16.8784 4.73388e-007 7.95968e-007 3.03482e-007 44.5616 32.3726 28.7447 70.9746 39.0966 -71.0378 -14.4176 13.5734 -15.6602 1.42248e-006 -2.27709e-006 1.2241e-006 
39.7369 37.0708 22.5105 179.994 51.0054 0.0125393 -0.172574 -1.9276 0.135257 -0.34088 -3.85559 0.264926 -0.340881 -3.85561 0.264926 -3.16272e-007 15.9934 -5.07115e-007 3.9535e-008 20.7643 5.75333e-008 6.16073 1.44712 17.8843 -16.2905 57.9677 27.809 32.0965 48.6369 -73.317 0.559479 -1.45498 8.28397 7.64262e-007 3.11261e-007 -2.1494e-007 1.91066e-006 7.78152e-007 -5.3735e-007 7.64262e-007 3.11261e-007 -2.1494e-007 7.64262e-007 3.11261e-007 -2.1494e-007 -0.0146344 -8.91606e-005 5.70225e-006 7.64257e-007 3.11288e-007 -2.14901e-007 7.64262e-007 3.11261e-007 -2.1494e-007 -0.0187657 -0.00117384 5.76677e-005 7.64254e-007 3.11295e-007 -2.14897e-007 7.64262e-007 3.11261e-007 -2.1494e-007 -0.012252 -0.00324278 0.000677481 7.64254e-007 3.11278e-007 -2.14928e-007 7.64262e-007 3.11261e-007 -2.1494e-007 1.91066e-006 7.78152e-007 -5.3735e-007 7.64262e-007 3.11261e-007 -2.1494e-007 -6.18127 1.45134 -17.9018 20.0248 56.9874 -32.3561 -32.116 48.6231 73.3074 -0.573333 -1.45398 -8.27714 7.53513e-007 1.05172e-006 -8.35255e-007 6.33407e-007 -8.23866e-007 -3.50236e-006 3.33625e-007 1.48405e-006 -2.65864e-006 7.53513e-007 1.05172e-006 -8.35255e-007 0.0150386 -9.13562e-005 -1.64086e-006 3.32814e-007 1.48371e-006 -2.65884e-006 7.53513e-007 1.05172e-006 -8.35255e-007 0.0189957 -0.00118954 -6.47262e-005 3.32575e-007 1.48368e-006 -2.65889e-006 7.53513e-007 1.05172e-006 -8.35255e-007 0.0122784 -0.00324253 -0.000681311 3.32881e-007 1.48394e-006 -2.65878e-006 7.53513e-007 1.05172e-006 -8.35255e-007 6.33407e-007 -8.23866e-007 -3.50236e-006 3.33625e-007 1.48405e-006 -2.65864e-006 -45.3716 32.2661 -29.1879 -70.4112 38.8002 70.6498 13.1749 13.9495 16.5022 -1.77288e-006 -6.30975e-007 -1.51135e-006 44.3382 32.4446 28.6094 70.9747 39.0967 -71.0414 -14.6897 13.5291 -15.3926 1.81699e-006 4.69005e-007 9.18996e-009 
39.737 37.0707 22.5106 179.994 51.0054 0.0125393 -0.172419 -1.89746 0.135535 -0.340622 -3.79542 0.265572 -0.340622 -3.79542 0.265571 2.50751e-006 15.9933 -1.48688e-006 -3.63986e-007 20.1876 6.49066e-009 6.16073 1.44715 17.8843 -16.2713 57.9721 27.7857 32.0965 48.6369 -73.317 0.559469 -1.45497 8.28396 -1.52915e-006 -6.22326e-007 4.27803e-007 -1.82041e-006 -1.25772e-006 3.80696e-006 -1.23789e-006 1.3072e-008 -2.95135e-006 -1.52915e-006 -6.22326e-007 4.27803e-007 -0.0145937 -8.9376e-005 7.6456e-006 -9.36818e-007 2.34823e-007 -9.85766e-007 -1.52915e-006 -6.22326e-007 4.27803e-007 -0.0187565 -0.00117397 6.9806e-005 -9.36259e-007 2.35007e-007 -9.85757e-007 -1.52915e-006 -6.22326e-007 4.27803e-007 -0.0122644 -0.00324747 0.000680466 -1.23784e-006 1.3431e-008 -2.95132e-006 -1.52915e-006 -6.22326e-007 4.27803e-007 -1.82041e-006 -1.25772e-006 3.80696e-006 -1.23789e-006 1.3072e-008 -2.95135e-006 -6.18127 1.45136 -17.9018 20.0248 56.9874 -32.3561 -32.116 48.6231 73.3074 -0.573333 -1.454 -8.27713 7.64106e-007 -3.04315e-007 -2.22551e-007 1.52821e-006 -6.08631e-007 -4.45102e-007 7.64106e-007 -3.04315e-007 -2.22551e-007 7.64106e-007 -3.04315e-007 -2.22551e-007 0.0149977 -9.24567e-005 3.58828e-006 7.64099e-007 -3.04344e-007 -2.22512e-007 7.64106e-007 -3.04315e-007 -2.22551e-007 0.0189996 -0.00119042 -6.63859e-005 7.64095e-007 -3.04351e-007 -2.22509e-007 7.64106e-007 -3.04315e-007 -2.22551e-007 0.0123083 -0.00325568 -0.000679195 7.64096e-007 -3.04333e-007 -2.2254e-007 7.64106e-007 -3.04315e-007 -2.22551e-007 1.52821e-006 -6.08631e-007 -4.45102e-007 7.64106e-007 -3.04315e-007 -2.22551e-007 -45.0568 32.3653 -29.0215 -70.4121 38.8004 70.6556 13.5587 13.8991 16.1264 -1.33399e-006 -8.97724e-007 1.91172e-006 44.1148 32.5169 28.4743 70.9751 39.0967 -71.0452 -14.9615 13.4834 -15.1252 -2.38542e-015 -2.38542e-014 -9.54166e-015 
